<?xml version="1.0" encoding="UTF-8"?>
<svg id="Livello_1" data-name="Livello 1" xmlns="http://www.w3.org/2000/svg" viewBox="0 0 557.89 433.08">
  <defs>
    <style>
      .cls-1 {
        fill: #16171b;
      }

      .cls-1, .cls-2 {
        stroke-width: 0px;
      }

      .cls-2 {
        fill: #06f;
      }
    </style>
  </defs>
  <g id="primary-logo-colour">
    <g id="pittogramma">
      <path class="cls-1" d="m475.75,208.79c-2.02-11.89-5.32-23.45-9.69-34.47-4.29-11.04-9.81-21.5-16.29-31.13-.66-.97-1.89-1.45-3.07-1.1-1.45.44-2.28,1.97-1.84,3.42v.02c3.26,10.8,5.62,21.67,7.12,32.51.73,5.43,1.18,10.86,1.41,16.27.15,2.7.21,5.4.24,8.09l-.17,8.05c-.78,21.38-5.21,42.11-12.99,61.13-15.39,38.11-44.03,69.27-78.71,87.14-34.58,18.06-75.01,22.72-112.38,14.89-18.75-3.85-36.97-10.77-53.87-20.59-3.82-2.26-7.57-4.7-11.23-7.26-14.96,9-29.81,17.46-44.23,25.06,8.23,8.87,17.26,17.07,27.08,24.33,20.63,15.49,44.68,26.82,70.11,32.83,25.42,6.06,52.15,6.7,77.7,2.1,12.8-2.29,25.38-5.75,37.52-10.35,12.1-4.69,23.73-10.51,34.67-17.35,21.84-13.75,40.83-31.65,55.55-52.33,14.76-20.65,25.28-44.02,30.92-68.24,5.6-24.23,6.26-49.26,2.15-73.02Z"/>
      <path class="cls-1" d="m147.21,309.87c-10.79-14.55-19.13-31.15-24.15-48.92-5.54-19.71-7.27-40.63-5.14-61.22,4.16-41.25,24.81-81.15,56.9-109.14,15.98-14.03,34.71-25.11,54.97-32.4,20.25-7.41,42.07-10.63,63.86-10.24,43.67,1.04,86.99,19.65,118.85,50.91l.02.02c1.03,1,2.67,1.04,3.74.05,1.1-1.02,1.18-2.74.16-3.84-15.55-16.88-34.09-31.32-54.96-41.56-10.4-5.13-21.25-9.53-32.52-12.62-11.25-3.11-22.8-5.27-34.49-6.42-23.39-1.93-47.29.01-70.11,6.72-22.83,6.59-44.53,17.55-63.56,32.21-19.05,14.64-35.43,32.93-47.99,53.71-12.56,20.77-21.36,44.05-25.44,68.29-4.14,24.26-3.56,49.29,1.2,73.65,2.35,12.2,5.84,24.24,10.32,35.96,3.3,8.51,7.23,16.79,11.66,24.84,11.29-5.75,23.54-12.41,36.69-20.02Z"/>
      <path class="cls-2" d="m557.11.82c-.66-.68-1.62-.97-2.55-.75-4.78,1.11-19.89,4.8-27.25,8.91-8.82,4.92-27.54,14.27-43.51,30.53l-17.76-7.38-20.69,17.78-34.02-9.12,21.21,21.66-14.07,13.78,25.62,4.34-5.85,5.73,8.18,8.35c-38.34,40.48-87.49,84.41-142.24,127.12C153.04,339.64,34.88,389.38,19.94,371.82c-4.77-5.61-.77-29.26,44.54-82.3,5.61-6.57,11.64-13.31,17.99-20.17l5.32-4.56c-1.28-7.32-2.2-14.68-2.71-22.06-2.75.97-9.08,7.32-9.08,7.32C21.87,306.72-14.31,359.84,5.48,383.1c9.37,11.01,28.1,11.62,52.55,5.04,68.04-18.3,180.29-92.25,257.77-152.69,54.99-42.89,104.44-87.05,143.25-127.88l10.11,10.32,5.85-5.73,3.8,25.71,14.07-13.78,21.22,21.66-8.41-34.21,18.21-20.31-7.01-17.91c16.6-15.63,26.34-34.16,31.44-42.87,4.26-7.28,8.27-22.31,9.48-27.06.23-.92-.03-1.88-.7-2.56Z"/>
    </g>
  </g>
</svg>