<?xml version="1.0" encoding="utf-8"?>
<!-- Generator: Adobe Illustrator 25.4.1, SVG Export Plug-In . SVG Version: 6.00 Build 0)  -->
<svg version="1.1" id="Livello_1" xmlns="http://www.w3.org/2000/svg" xmlns:xlink="http://www.w3.org/1999/xlink" x="0px" y="0px"
	 viewBox="0 0 450.6 450.6" style="enable-background:new 0 0 450.6 450.6;" xml:space="preserve">
<style type="text/css">
	.st0{fill:#0F1122;}
	.st1{fill:#FC4B0D;}
</style>
<path class="st0" d="M227.1,199.8c-10,5.7-18.2,14.2-23.6,24.4c-2,3.7-3.7,7.7-5,11.7c-0.5,1.1-0.9,2.2-1.3,3.3l-15.4,49l-22.2-86.7
	c-0.7-2.6-2.2-5-4.3-6.8c-2.2-1.8-4.9-2.7-7.8-2.6c-2.9-0.1-5.7,0.8-8,2.6c-2.1,1.8-3.6,4.1-4.3,6.8l-25.1,85l-26.6-83
	c-1.3-3.9-3-6.8-5-8.6c-2.2-1.8-4.9-2.8-7.8-2.7c-6.9,0-10.4,3.5-10.3,10.4c0,2.3,0.3,4.7,1,6.9l36.4,109.3c0.9,2.4,2.5,4.4,4.6,5.8
	c4.3,3.1,10.2,3.1,14.5,0c2.1-1.4,3.7-3.4,4.6-5.8l25.3-89.4l24.1,89.5c0.7,2.4,2.2,4.4,4.3,5.8c2.2,1.6,4.8,2.4,7.5,2.3
	c2.6,0,5.1-0.8,7.1-2.3c2-1.4,3.6-3.5,4.4-5.8l8.5-26c0.4,0.7,0.7,1.4,1.1,2.1c5.9,10.3,14.6,18.7,25,24.3
	c10.7,5.8,22.7,8.7,36.2,8.7c8.1-0.1,16.1-1.5,23.8-4.2c7.5-2.4,14.6-6,20.8-10.8c2.5-1.7,3.9-4.4,3.9-7.4c0-3.1-1.5-5.9-4.4-8.4
	c-2.1-1.7-4.7-2.6-7.4-2.5c-2.9-0.1-5.8,0.9-8.1,2.7c-4,2.9-8.4,5.2-13.2,6.6c-5,1.7-10.2,2.7-15.4,2.7c-12.5,0-23-3.5-31.7-10.6
	c-8.6-7.1-13.8-16.3-15.6-27.8h93.6c3,0.1,5.9-1,8.1-3.1c2.1-2,3.3-4.8,3.2-7.8c0-13-2.5-24.5-7.4-34.5c-4.6-9.7-12-17.8-21.2-23.4
	c-9.2-5.6-20.1-8.4-32.8-8.4C248.6,191,237.2,193.9,227.1,199.8z M300.1,248.4h-82c2-11,6.7-19.8,14.2-26.4
	c7.4-6.6,17.2-9.9,29.2-9.9c10.8,0,19.6,3.3,26.4,9.9S298.6,237.4,300.1,248.4z"/>
<path class="st0" d="M372.1,176.7c-5.4,0-9.9,4.4-9.9,9.9v73.1c0,94.4-76.8,171.2-171.2,171.2S19.7,354.1,19.7,259.6
	S96.5,88.4,190.9,88.4h75c5.4,0,9.9-4.4,9.9-9.9s-4.4-9.9-9.9-9.9h-75c-105.3,0-191,85.7-191,191s85.7,191,191,191s191-85.7,191-191
	v-73.1C381.9,181.1,377.5,176.7,372.1,176.7z"/>
<path class="st1" d="M440.7,68.7h-58.8V9.9c0-5.4-4.4-9.9-9.9-9.9c-5.4,0-9.9,4.4-9.9,9.9v58.8h-58.8c-5.4,0-9.9,4.4-9.9,9.9
	s4.4,9.9,9.9,9.9h58.8v58.8c0,5.4,4.4,9.9,9.9,9.9c5.4,0,9.9-4.4,9.9-9.9V88.4h58.8c5.4,0,9.9-4.4,9.9-9.9S446.1,68.7,440.7,68.7
	C440.7,68.7,440.7,68.7,440.7,68.7z"/>
</svg>
